<?xml version="1.0" encoding="UTF-8"?>
<svg xmlns="http://www.w3.org/2000/svg" width="28" height="28" viewBox="0 0 28 28" fill="none"> <path d="M27.371 18.2075C27.2812 18.477 27.0117 18.6567 26.7122 18.5668C26.4127 18.477 26.263 18.1775 26.3528 17.908C26.3828 17.7882 26.4427 17.6385 26.4726 17.5187C26.5325 17.2492 26.832 17.0695 27.1015 17.1294C27.371 17.1893 27.5507 17.4888 27.4908 17.7583C27.4908 17.7882 27.4309 17.9979 27.371 18.2075ZM27.9999 14.015C27.9999 14.3144 27.7603 14.554 27.4609 14.554C27.1614 14.554 26.9218 14.3144 26.9218 14.015C26.9218 6.85775 21.1422 1.04813 13.985 1.04813C6.82778 1.04813 1.01818 6.82781 1.01818 13.985C1.01818 17.7583 2.66523 21.3818 5.54009 23.8374V23.7476C5.54009 20.2738 7.84596 17.1893 11.17 16.2011C9.22349 15.093 8.14542 12.9369 8.3251 10.7807C8.59462 7.63636 11.3497 5.30053 14.4941 5.57005C17.2791 5.80963 19.4951 8.02567 19.7047 10.8107C19.8844 12.9369 18.7764 15.123 16.7999 16.231C20.1539 17.2192 22.4299 20.3037 22.4299 23.7775V23.8374C23.2983 23.0888 24.0769 22.2203 24.7357 21.262C24.8855 21.0225 25.2149 20.9626 25.4544 21.1123C25.694 21.262 25.7539 21.5914 25.6042 21.831C23.0587 25.6342 18.7764 28 14.0149 28C6.37859 28 0 21.8011 0 13.9551C0.0299464 6.34866 6.19891 0 14.0149 0C21.7411 0 28.0298 6.25882 27.9999 14.015ZM14.0449 15.8717C16.7999 15.8717 18.8662 13.5059 18.6566 10.8706C18.447 8.29519 16.201 6.40856 13.6256 6.61818C11.3497 6.79786 9.55291 8.59465 9.37323 10.8706C9.1636 13.5358 11.2599 15.8717 13.985 15.8717H14.0449ZM6.6481 24.646C11.0802 27.7305 16.9497 27.7305 21.3817 24.646V23.7476C21.3817 19.9743 18.3272 16.9198 14.554 16.9198C14.4641 16.9198 13.416 16.9198 13.4459 16.9198C9.67269 16.9198 6.61816 19.9743 6.61816 23.7476L6.6481 24.646Z" fill="#1A428A"/> </svg>