<?xml version="1.0" encoding="UTF-8"?>
<svg xmlns="http://www.w3.org/2000/svg" width="106" height="29" viewBox="0 0 106 29" fill="none"> <g clip-path="url(#clip0_221:2172)"> <path d="M59.3496 19.5709C56.9879 19.5709 55.0165 21.5033 55.0165 23.8608C55.0165 25.0055 55.4721 26.1033 56.283 26.9128C57.0939 27.7222 58.1938 28.177 59.3406 28.177C60.4874 28.177 61.5872 27.7222 62.3981 26.9128C63.2091 26.1033 63.6646 25.0055 63.6646 23.8608C63.6646 21.5033 61.6933 19.5709 59.3496 19.5709ZM59.3496 26.4262C58.8425 26.4283 58.3462 26.2799 57.9237 26C57.5012 25.7201 57.1715 25.3212 56.9764 24.8539C56.7814 24.3867 56.7298 23.8721 56.8281 23.3755C56.9265 22.879 57.1705 22.4227 57.529 22.0647C57.8875 21.7068 58.3445 21.4632 58.842 21.3648C59.3394 21.2665 59.8549 21.3179 60.3231 21.5124C60.7912 21.707 61.191 22.036 61.4715 22.4577C61.7521 22.8793 61.9008 23.3747 61.8989 23.8809C61.8995 24.2153 61.834 24.5465 61.7062 24.8555C61.5783 25.1646 61.3905 25.4454 61.1537 25.6819C60.9168 25.9184 60.6356 26.1058 60.326 26.2336C60.0164 26.3613 59.6846 26.4268 59.3496 26.4262Z" fill="#1A428A"/> <path d="M44.4978 11.6666C42.6091 11.6666 41.4199 10.7763 41.1927 9.27517H39.3214C39.5486 11.824 41.49 13.3425 44.3922 13.3425C47.12 13.3425 48.9392 11.9113 48.9392 9.69327C48.9392 7.8607 47.6625 6.91981 45.4411 6.4816L43.7795 6.14948C42.5028 5.90541 41.8033 5.41659 41.8033 4.47431C41.8033 3.32124 42.8001 2.67572 44.322 2.67572C46.053 2.67572 46.9102 3.44397 47.12 4.70034H48.9739C48.6961 1.96017 46.3851 1.05255 44.1998 1.05255C41.5602 1.05255 39.809 2.44899 39.809 4.61367C39.809 6.35957 40.8419 7.49461 43.0627 7.91271L45.1465 8.31416C46.5455 8.55962 47.0179 9.20514 47.0179 9.92069C47.0165 11.0204 46.0537 11.6666 44.4978 11.6666Z" fill="#1A428A"/> <path d="M52.0699 3.02518C52.6999 3.02518 53.2243 2.5537 53.2243 1.90748C53.2243 1.26126 52.6999 0.790466 52.0699 0.790466C51.4225 0.790466 50.9154 1.26196 50.9154 1.90748C50.9154 2.553 51.4225 3.02518 52.0699 3.02518Z" fill="#1A428A"/> <path d="M52.9798 4.92773H51.178V13.133H52.9798V4.92773Z" fill="#1A428A"/> <path d="M59.0009 11.8586C57.7589 11.8586 57.0066 11.4426 56.8142 10.4268L55.1353 10.4095C55.3436 12.5749 57.0066 13.3424 58.9474 13.3424C61.0118 13.3424 62.533 12.4522 62.533 10.7243C62.533 9.1351 61.3091 8.59428 60.0671 8.36686L58.5285 8.1221C57.5658 7.9654 57.2511 7.54591 57.2511 7.10978C57.2511 6.5329 57.8283 6.14878 58.8786 6.14878C59.9289 6.14878 60.7145 6.49546 60.8013 7.38852H62.4809C62.3059 5.23908 60.4665 4.69965 58.8786 4.69965C56.8322 4.69965 55.4506 5.67729 55.4506 7.2651C55.4506 8.74959 56.6218 9.37778 57.8818 9.58718L59.7003 9.90127C60.3998 10.0233 60.802 10.3728 60.802 10.8616C60.8013 11.5099 60.0671 11.8586 59.0009 11.8586Z" fill="#1A428A"/> <path d="M65.7554 9.97339C65.7554 12.0854 66.8752 13.3425 68.9736 13.3425C69.6125 13.3472 70.2468 13.2348 70.845 13.011L70.5831 11.3525C70.1628 11.5265 69.6738 11.6666 69.1834 11.6666C68.1693 11.6666 67.5747 11.1604 67.5747 9.97339V6.44693H70.6178V4.92777H67.5747V1.90747H65.7554V4.92777H63.8146V6.44693H65.7554V9.97339Z" fill="#1A428A"/> <path d="M76.3221 4.71838C73.8214 4.71838 72.0897 6.60364 72.0897 9.03042C72.0897 11.4745 73.8381 13.3425 76.427 13.3425C78.2108 13.3425 79.6626 12.4695 80.1877 10.985H78.1934C77.8614 11.5092 77.2494 11.7533 76.445 11.7533C74.9057 11.7533 74.1187 10.8103 73.9444 9.57055H80.3982C80.7476 6.7957 79.0485 4.71838 76.3221 4.71838ZM73.9777 8.31417C74.1861 7.16249 74.9745 6.25488 76.3395 6.25488C77.6162 6.25488 78.4928 6.97043 78.5956 8.31417H73.9777Z" fill="#1A428A"/> <path d="M84.0693 7.52859C84.6639 6.70904 85.4342 6.35958 86.2921 6.35958C87.3583 6.35958 88.128 6.88307 88.128 8.3322V13.1331H89.9291V8.3322C89.9337 8.04543 89.9104 7.75889 89.8597 7.47659C90.4723 6.65634 91.2413 6.35958 92.0464 6.35958C93.2175 6.35958 93.9913 6.98777 93.9913 8.43967V13.1358H95.789V8.4369C95.789 6.01012 94.3199 4.71838 92.1686 4.71838C90.962 4.71838 90.0354 5.11984 89.2303 5.90542C88.6184 5.11984 87.6744 4.71838 86.5019 4.71838C85.4175 4.71838 84.6833 5.06507 84.0707 5.626V4.92778H82.2507V13.1331H84.0693V7.52859Z" fill="#1A428A"/> <path d="M104.199 4.92778V5.574C103.499 5.03248 102.607 4.71838 101.559 4.71838C99.251 4.71838 97.397 6.63901 97.397 9.03042C97.397 11.4218 99.251 13.3425 101.559 13.3425C102.609 13.3425 103.5 13.0284 104.199 12.4875V13.1331H106V4.92778H104.199ZM104.199 10.5142C103.587 11.3879 102.73 11.702 101.82 11.702C100.317 11.702 99.2142 10.4969 99.2142 9.03042C99.2142 7.56395 100.317 6.35958 101.82 6.35958C102.73 6.35958 103.587 6.67367 104.199 7.54662V10.5142Z" fill="#1A428A"/> <path d="M47.0693 21.8347C48.2064 21.4513 48.8878 20.4036 48.8878 19.1639C48.8878 17.2786 47.4194 16.1096 44.9528 16.1096H39.7931V27.9807H45.1417C47.7813 27.9807 49.4623 26.671 49.4623 24.733C49.4658 23.3192 48.6933 22.1495 47.0693 21.8347ZM41.6825 17.7675H44.743C46.2642 17.7675 47.1214 18.3783 47.1214 19.4087C47.1214 20.509 46.2469 21.2592 44.6555 21.2592H41.6825V17.7675ZM45.075 26.3215H41.6825V22.8131H45.1452C46.6671 22.8131 47.6111 23.4413 47.6111 24.5063C47.6111 25.5186 46.7192 26.3215 45.075 26.3215Z" fill="#1A428A"/> <path d="M53.0854 19.7755H51.2836V27.9807H53.0854V19.7755Z" fill="#1A428A"/> <path d="M52.1748 15.6382C51.5281 15.6382 51.021 16.1097 51.021 16.7552C51.021 17.4007 51.5281 17.8743 52.1748 17.8743C52.8048 17.8743 53.3299 17.4028 53.3299 16.7566C53.3299 16.1104 52.8048 15.6382 52.1748 15.6382Z" fill="#1A428A"/> <path d="M72.8344 16.1096H62.5331V17.8368H66.7481V27.9807H68.6194V17.8368H72.8344V16.1096Z" fill="#1A428A"/> <path d="M76.3221 19.5661C73.8214 19.5661 72.0897 21.4514 72.0897 23.8774C72.0897 26.3216 73.8381 28.1902 76.427 28.1902C78.2108 28.1902 79.6626 27.3172 80.1877 25.8327H78.1934C77.8614 26.3562 77.2494 26.601 76.445 26.601C74.9057 26.601 74.1187 25.658 73.9444 24.4183H80.3982C80.7469 21.6427 79.0485 19.5661 76.3221 19.5661ZM73.9777 23.1619C74.1861 22.0102 74.9745 21.1026 76.3395 21.1026C77.6162 21.1026 78.4928 21.8181 78.5956 23.1619H73.9777Z" fill="#1A428A"/> <path d="M86.2913 21.2066C87.393 21.2066 88.2148 21.8348 88.4447 22.7604H90.2986C90.002 20.8752 88.3579 19.5661 86.2941 19.5661C83.8282 19.5661 81.9562 21.4514 81.9562 23.8774C81.9562 26.3216 83.8317 28.1902 86.2941 28.1902C88.3579 28.1902 90.002 26.8811 90.2986 24.9951H88.4447C88.2175 25.9201 87.3958 26.549 86.2913 26.549C84.7694 26.549 83.7726 25.3619 83.7726 23.8774C83.7726 22.3929 84.7694 21.2066 86.2913 21.2066Z" fill="#1A428A"/> <path d="M96.2947 19.5661C95.2451 19.5661 94.3497 19.8975 93.6357 20.5091V15.5862H91.8171V27.9808H93.6357V22.4463C94.2824 21.6427 95.1395 21.2066 95.9279 21.2066C97.2574 21.2066 98.0618 22.0102 98.0618 23.5113V27.9808H99.8811V23.4046C99.8797 21.0326 98.4286 19.5661 96.2947 19.5661Z" fill="#1A428A"/> <path d="M10.7507 14.4997C10.7507 13.4384 10.4354 12.4009 9.84468 11.5184C9.25396 10.636 8.41434 9.94824 7.43202 9.54212C6.4497 9.13601 5.36878 9.02978 4.32598 9.23689C3.28317 9.44399 2.32531 9.95511 1.57353 10.7056C0.821755 11.4561 0.309823 12.4123 0.102478 13.4533C-0.104866 14.4942 0.00168939 15.5731 0.408671 16.5536C0.815653 17.5341 1.50478 18.3721 2.3889 18.9616C3.27303 19.5512 4.31243 19.8658 5.37568 19.8656C6.08165 19.8658 6.78073 19.7271 7.43299 19.4575C8.08524 19.1879 8.67788 18.7927 9.17704 18.2943C9.67621 17.796 10.0721 17.2044 10.3421 16.5533C10.6121 15.9022 10.751 15.2044 10.7507 14.4997Z" fill="#4AC1E0"/> <path d="M29.0528 14.5003C29.0518 13.0778 28.4851 11.7138 27.477 10.7083C26.469 9.70271 25.1022 9.13784 23.6771 9.13784C22.676 9.13748 21.716 8.7403 21.0082 8.03364C20.3004 7.32698 19.9026 6.36868 19.9025 5.3694C19.903 4.30803 19.5882 3.27033 18.9979 2.38755C18.4076 1.50478 17.5682 0.816578 16.586 0.409996C15.6038 0.00341423 14.5229 -0.103287 13.48 0.10339C12.437 0.310067 11.4789 0.820837 10.7268 1.5711C9.97465 2.32136 9.46234 3.27741 9.25461 4.31834C9.04688 5.35926 9.15308 6.43829 9.55976 7.41897C9.96645 8.39964 10.6554 9.2379 11.5394 9.82773C12.4234 10.4176 13.4627 10.7324 14.526 10.7326C15.5269 10.7326 16.4868 11.1294 17.1946 11.8356C17.9024 12.5419 18.3003 13.4999 18.3006 14.4989C18.3006 14.9937 18.203 15.4837 18.0133 15.9408C17.8236 16.3979 17.5456 16.8133 17.1951 17.1631C16.8446 17.513 16.4285 17.7905 15.9705 17.9799C15.5126 18.1692 15.0217 18.2667 14.526 18.2667C13.4628 18.2667 12.4235 18.5814 11.5395 19.171C10.6554 19.7606 9.96641 20.5987 9.55953 21.5792C9.15266 22.5597 9.0462 23.6386 9.25362 24.6795C9.46105 25.7204 9.97303 26.6765 10.7248 27.4269C11.4766 28.1774 12.4345 28.6884 13.4773 28.8955C14.5201 29.1025 15.601 28.9963 16.5832 28.5901C17.5655 28.184 18.4051 27.4962 18.9958 26.6138C19.5865 25.7314 19.9018 24.6939 19.9018 23.6326C19.9018 22.6333 20.2994 21.6749 21.0073 20.9682C21.7151 20.2615 22.6752 19.8644 23.6764 19.8642C24.9805 19.8726 26.2425 19.4036 27.2235 18.5458C28.2045 17.6881 28.8365 16.5012 29 15.2096C29.033 14.9746 29.0506 14.7377 29.0528 14.5003Z" fill="#4AC1E0"/> </g> <defs> <clipPath id="clip0_221:2172"> <rect width="106" height="29" fill="white"/> </clipPath> </defs> </svg>